<?xml version="1.0" encoding="UTF-8"?>
<svg id="Layer_1" xmlns="http://www.w3.org/2000/svg" viewBox="0 0 1216 236.24">
  <defs>
    <style>
      .cls-1 {
        fill: #231f20;
      }

      .cls-2 {
        fill: #0a72ff;
      }
    </style>
  </defs>
  <path class="cls-1" d="M445.08,172.05c-6.49,29.41-26.89,59.47-76.36,59.47-52.21,0-80.77-36.58-80.77-90.2,0-50.81,30.27-92.51,83.04-92.51,55.98,0,72.69,40.08,74.08,60.76h-41.37c-3.43-15.41-12.52-27.18-33.53-27.18-25.05,0-39.23,21.75-39.23,57.54,0,38.03,14.5,58.25,38.72,58.25,18.36,0,28.54-10.42,33.81-26.13h41.61Z"/>
  <path class="cls-1" d="M149.18,149.61c.1,26.43,13.37,49.08,39.31,49.08,22.63,0,29.45-10.15,34.37-21.45h42.32c-6.42,21.69-25.37,55.02-77.86,55.02-56.62,0-80.71-43.54-80.71-89.04,0-53.8,27.45-93.67,82.51-93.67,58.72,0,78.46,43.97,78.46,85.42,0,5.71,0,9.75-.58,14.64h-117.83ZM225.17,122.77c-.34-23.15-10.59-42.26-36.25-42.26s-36.41,17.79-38.72,42.26h74.98Z"/>
  <path class="cls-2" d="M1108.51,180.02c4.11,15.64,16.4,24.6,36.32,24.6s28.16-7.97,28.16-20.32-7.67-18.39-35.47-25.18c-54.52-13.38-64.2-30.2-64.2-54.52s18.14-51.59,68.18-51.59,68.38,27.95,70.14,51.83h-40.31c-1.86-8.08-7.59-21.45-31.7-21.45-18.83,0-24.7,8.65-24.7,17.71,0,10.14,6.01,15.1,35.58,22.06,56.46,13.22,65.49,32.4,65.49,58.11,0,29.48-22.75,54.45-72.7,54.45s-72.35-24.66-76.39-55.7h41.6Z"/>
  <path class="cls-1" d="M559.05,53.57c-28.7,0-43.44,13.75-51.51,26.41V1.86h-42.22s-13.6,0-13.6,0c8.02,0,13.59,6,13.59,11.76,0,0,0,0,.01,0v218.59h42.22v-93.56c0-30.11,8.16-50.35,36.55-50.35,22,0,31.57,13.54,31.57,38.59v105.32h41.98v-111.8c0-48.9-27.57-66.83-58.58-66.83Z"/>
  <path class="cls-2" d="M1045.97,183.74V1.82h-42.22s-13.59,0-13.59,0c8.02,0,13.59,6,13.59,11.76h0v58.51c-4.14-8.49-17.73-18.56-44.78-18.56-49.05,0-78.86,39.19-78.86,92.92s27.92,89.79,72.3,89.79c26.93,0,42.85-9.27,51.34-24.51l.16,20.43h42.39c-.34-16.27-.34-32.36-.34-48.43ZM964.05,201.95c-24.92,0-40.46-19.89-40.46-56.66s14.89-57.47,42.09-57.47c34.18,0,39.71,23.23,39.71,56.09,0,29.52-5.56,58.04-41.34,58.04Z"/>
  <path class="cls-2" d="M719.36,53.53c-29.47,0-44.45,12.28-51.88,24.74V1.82h-42.22s-13.6,0-13.6,0c8.03,0,13.59,6,13.59,11.76,0,0,0,0,0,0v160.99c0,19.12,0,38.48-.34,57.6h42.28l-.19-18.73c8.59,14.12,21.08,22.81,47.7,22.81,49.92,0,75.93-43.58,75.93-94.62s-25.02-88.09-71.28-88.09ZM706.34,202.19c-31.16,0-40.83-24.75-40.83-56.48,0-37.58,10.89-57.88,41.68-57.88,27.5,0,40.46,22.65,40.46,54.62,0,36.22-14.63,59.75-41.31,59.75Z"/>
  <g>
    <path class="cls-2" d="M814.23,61.64h-13.59c8,0,13.56,5.96,13.59,11.71v162.85h42.22V61.64h-42.22Z"/>
    <path d="M856.34,12.25v-6.39s-42.1,0-42.1,0v48.42s.05,0,.08,0c23.2-.02,42-18.82,42.02-42.02Z"/>
  </g>
  <g>
    <path class="cls-1" d="M105.88,88.17v-32.38h-35.65v-.04H28.02v.04H0v32.38h28.02v97.71c0,30.02,11.51,46.85,43.24,46.85,9.28,0,21.47-.21,30.34-3.3v-29.7c-4,.74-9.23.85-12.42.85-14.87,0-18.95-6.35-18.95-20.84v-91.56h35.65Z"/>
    <path class="cls-2" d="M70.02,6.39V0S27.92,0,27.92,0v48.42s.05,0,.08,0c23.2-.02,42-18.82,42.02-42.02Z"/>
  </g>
</svg>